# xmcd CD database file
#
# Track frame offsets:
#	150
#	22327
#	43297
#	60120
#	84947
#	110905
#	138292
#	159607
#	184150
#	211637
#
# Disc length: 3145 seconds
#
# Revision: 1
# Processed by: cddbd v1.5.2PL0 Copyright (c) Steve Scherf et al.
# Submitted via: CDex 1.70beta3
#
DISCID=850c470a
DTITLE=高橋ひろ - 君じゃなけりゃ意味ないね
DYEAR=1993
DGENRE=JPop
TTITLE0=ランチタイム グッドバイ
TTITLE1=いつも上機嫌
TTITLE2=君に幸あれ 僕に福あれ
TTITLE3=サブリナは何処へ
TTITLE4=夜明けのページボーイ
TTITLE5=合鍵
TTITLE6=SEX FRIENDS
TTITLE7=ことほぎ
TTITLE8=君じゃなければ意味ないね
TTITLE9=にじんで見えない
EXTD=YEAR: 1993
EXTT0=
EXTT1=
EXTT2=
EXTT3=
EXTT4=
EXTT5=
EXTT6=
EXTT7=
EXTT8=
EXTT9=
PLAYORDER=
